<?xml version="1.0" encoding="utf-8"?>
<!-- Generator: Adobe Illustrator 19.2.0, SVG Export Plug-In . SVG Version: 6.00 Build 0)  -->
<svg version="1.1" id="Layer_1" xmlns="http://www.w3.org/2000/svg" xmlns:xlink="http://www.w3.org/1999/xlink" x="0px" y="0px"
	 viewBox="0 0 238 92" style="enable-background:new 0 0 238 92;" xml:space="preserve">
<style type="text/css">
	.st0{fill:#231F20;}
</style>
<g>
	<g>
		<g>
			<path class="st0" d="M80.8,87.8v1c0,0.6-0.5,1-1,1h-3.1c-0.6,0-1-0.5-1-1v-62H63.5v24.3c0,0.6-0.5,1-1,1H42.6c-0.6,0-1-0.5-1-1
				c0-0.6,0.5-1,1-1h18.9V25.8c0-0.6,0.5-1,1-1h14.3c0.6,0,1,0.5,1,1v62H80.8z"/>
			<path class="st0" d="M229.3,88.9c0,0.6-0.5,1-1,1H83.8c-0.6,0-1-0.5-1-1v-1h145.6C228.9,87.8,229.3,88.3,229.3,88.9z"/>
		</g>
		<g>
			<path class="st0" d="M22.3,87.8v1c0,0.6-0.5,1-1,1H9.7c-0.6,0-1-0.5-1-1c0-0.6,0.5-1,1-1H22.3z"/>
			<path class="st0" d="M50.2,56.2c0,0.6-0.5,1-1,1h-6.7c-0.6,0-1-0.5-1-1V26.8H29.3v62c0,0.6-0.5,1-1,1h-3.1c-0.6,0-1-0.5-1-1v-1
				h3.1v-62c0-0.6,0.5-1,1-1h14.3c0.6,0,1,0.5,1,1v29.4h5.6C49.8,55.2,50.2,55.6,50.2,56.2z"/>
		</g>
		<g>
			<path class="st0" d="M55,57.2h-5.8c-0.6,0-1-0.5-1-1s0.5-1,1-1H55c0.6,0,1,0.5,1,1S55.6,57.2,55,57.2z"/>
		</g>
		<g>
			<path class="st0" d="M54.6,87.8v1c0,0.6,0.5,1,1,1c0.6,0,1-0.5,1-1v-1H54.6z M62.5,55.2H55c-0.6,0-1,0.5-1,1c0,0.6,0.5,1,1,1h6.4
				v3.1H42.6c-0.6,0-1,0.5-1,1v27.5c0,0.6,0.5,1,1,1h3c0.6,0,1-0.5,1-1v-1h-3V62.3h17.9v25.5h-3v1c0,0.6,0.5,1,1,1h3
				c0.6,0,1-0.5,1-1V56.2C63.5,55.6,63,55.2,62.5,55.2z M48.4,87.8v1c0,0.6,0.5,1,1,1c0.6,0,1-0.5,1-1v-1H48.4z"/>
		</g>
		<g>
			<path class="st0" d="M41,26.8c-0.6,0-1-0.5-1-1v-4.2h-9.2v4.2c0,0.6-0.5,1-1,1c-0.6,0-1-0.5-1-1v-5.2c0-0.6,0.5-1,1-1H41
				c0.6,0,1,0.5,1,1v5.2C42.1,26.4,41.6,26.8,41,26.8z"/>
		</g>
		<g>
			<path class="st0" d="M37.7,21.6c-0.6,0-1-0.5-1-1v-4.2h-2.6v4.2c0,0.6-0.5,1-1,1s-1-0.5-1-1v-5.2c0-0.6,0.5-1,1-1h4.6
				c0.6,0,1,0.5,1,1v5.2C38.8,21.2,38.3,21.6,37.7,21.6z"/>
		</g>
		<g>
			<path class="st0" d="M32.9,61.9c-0.6,0-1-0.5-1-1v-35c0-0.6,0.5-1,1-1s1,0.5,1,1v35C33.9,61.4,33.4,61.9,32.9,61.9z"/>
		</g>
		<g>
			<path class="st0" d="M32.9,77.9c-0.6,0-1-0.5-1-1v-8.7c0-0.6,0.5-1,1-1s1,0.5,1,1v8.7C33.9,77.4,33.4,77.9,32.9,77.9z"/>
		</g>
		<g>
			<path class="st0" d="M38,42.8c-0.6,0-1-0.5-1-1V25.8c0-0.6,0.5-1,1-1c0.6,0,1,0.5,1,1v15.9C39,42.3,38.5,42.8,38,42.8z"/>
		</g>
		<g>
			<path class="st0" d="M38,56c-0.6,0-1-0.5-1-1V45c0-0.6,0.5-1,1-1c0.6,0,1,0.5,1,1v10C39,55.6,38.5,56,38,56z"/>
		</g>
		<g>
			<path class="st0" d="M44.6,26.8h-2c-0.6,0-1-0.5-1-1c0-0.6,0.5-1,1-1h2c0.6,0,1,0.5,1,1C45.6,26.4,45.2,26.8,44.6,26.8z"/>
		</g>
		<g>
			<path class="st0" d="M28.3,26.8h-2c-0.6,0-1-0.5-1-1c0-0.6,0.5-1,1-1h2c0.6,0,1,0.5,1,1C29.3,26.4,28.8,26.8,28.3,26.8z"/>
		</g>
		<g>
			<g>
				<path class="st0" d="M75.2,26.8c-0.6,0-1-0.5-1-1v-4.2H65v4.2c0,0.6-0.5,1-1,1s-1-0.5-1-1v-5.2c0-0.6,0.5-1,1-1h11.2
					c0.6,0,1,0.5,1,1v5.2C76.3,26.4,75.8,26.8,75.2,26.8z"/>
			</g>
			<g>
				<path class="st0" d="M71.9,21.6c-0.6,0-1-0.5-1-1v-4.2h-2.6v4.2c0,0.6-0.5,1-1,1s-1-0.5-1-1v-5.2c0-0.6,0.5-1,1-1h4.6
					c0.6,0,1,0.5,1,1v5.2C73,21.2,72.5,21.6,71.9,21.6z"/>
			</g>
			<g>
				<path class="st0" d="M72.2,61.9c0.6,0,1-0.5,1-1v-35c0-0.6-0.5-1-1-1s-1,0.5-1,1v35C71.2,61.4,71.6,61.9,72.2,61.9z"/>
			</g>
			<g>
				<path class="st0" d="M72.2,77.9c0.6,0,1-0.5,1-1v-8.7c0-0.6-0.5-1-1-1s-1,0.5-1,1v8.7C71.2,77.4,71.6,77.9,72.2,77.9z"/>
			</g>
			<g>
				<path class="st0" d="M67.1,42.8c0.6,0,1-0.5,1-1V25.8c0-0.6-0.5-1-1-1s-1,0.5-1,1v15.9C66.1,42.3,66.5,42.8,67.1,42.8z"/>
			</g>
			<g>
				<path class="st0" d="M67.1,56c0.6,0,1-0.5,1-1V45c0-0.6-0.5-1-1-1s-1,0.5-1,1v10C66.1,55.6,66.5,56,67.1,56z"/>
			</g>
			<g>
				<path class="st0" d="M78.8,26.8h-2c-0.6,0-1-0.5-1-1c0-0.6,0.5-1,1-1h2c0.6,0,1,0.5,1,1C79.8,26.4,79.4,26.8,78.8,26.8z"/>
			</g>
			<g>
				<path class="st0" d="M62.5,26.8h-2c-0.6,0-1-0.5-1-1c0-0.6,0.5-1,1-1h2c0.6,0,1,0.5,1,1C63.5,26.4,63,26.8,62.5,26.8z"/>
			</g>
		</g>
		<g>
			<path class="st0" d="M22.2,52.8c-0.2,0-0.4-0.1-0.6-0.2c-0.5-0.3-0.6-0.9-0.3-1.4c1.8-2.7,3.9-5.1,6.3-7.2
				c0.4-0.4,1.1-0.3,1.4,0.1c0.4,0.4,0.3,1.1-0.1,1.4c-2.3,2-4.3,4.3-5.9,6.8C22.8,52.7,22.5,52.8,22.2,52.8z"/>
		</g>
		<g>
			<path class="st0" d="M16.2,69.5C16.2,69.5,16.1,69.5,16.2,69.5c-0.7-0.1-1.1-0.6-1-1.1c0.4-4.2,1.5-8.3,3.3-12.2
				c0.2-0.5,0.8-0.7,1.4-0.5c0.5,0.2,0.7,0.8,0.5,1.4c-1.7,3.6-2.8,7.5-3.1,11.5C17.2,69.1,16.7,69.5,16.2,69.5z"/>
		</g>
		<g>
			<path class="st0" d="M20.1,89.9c-0.4,0-0.7-0.2-0.9-0.6c-2.4-4.6-3.8-9.6-4.1-14.8c0-0.6,0.4-1,1-1.1c0.6,0,1,0.4,1.1,1
				c0.3,4.9,1.6,9.7,3.9,14c0.3,0.5,0.1,1.1-0.4,1.4C20.4,89.8,20.3,89.9,20.1,89.9z"/>
		</g>
		<g>
			<path class="st0" d="M82.9,52.8c-0.3,0-0.7-0.2-0.8-0.5c-1.7-2.5-3.7-4.8-5.9-6.8c-0.4-0.4-0.5-1-0.1-1.4c0.4-0.4,1-0.5,1.4-0.1
				c2.4,2.1,4.5,4.6,6.3,7.2c0.3,0.5,0.2,1.1-0.3,1.4C83.3,52.8,83.1,52.8,82.9,52.8z"/>
		</g>
		<g>
			<path class="st0" d="M88.8,69.5c-0.5,0-1-0.4-1-0.9c-0.4-4-1.4-7.9-3.1-11.5c-0.2-0.5,0-1.1,0.5-1.4c0.5-0.2,1.1,0,1.4,0.5
				c1.8,3.8,2.9,7.9,3.3,12.2C89.9,69,89.5,69.5,88.8,69.5C88.9,69.5,88.9,69.5,88.8,69.5z"/>
		</g>
		<g>
			<path class="st0" d="M84.9,89.9c-0.2,0-0.3,0-0.5-0.1c-0.5-0.3-0.7-0.9-0.4-1.4c2.3-4.4,3.6-9.1,3.9-14c0-0.6,0.5-1,1.1-1
				c0.6,0,1,0.5,1,1.1c-0.3,5.2-1.7,10.2-4.1,14.8C85.6,89.7,85.3,89.9,84.9,89.9z"/>
		</g>
		<g>
			<path class="st0" d="M62.5,38c-0.1,0-0.2,0-0.3,0c-3.1-0.9-6.4-1.3-9.7-1.3c-3.3,0-6.5,0.4-9.7,1.3c-0.5,0.2-1.1-0.2-1.3-0.7
				c-0.2-0.5,0.2-1.1,0.7-1.3c3.3-0.9,6.8-1.4,10.2-1.4c3.5,0,6.9,0.5,10.2,1.4c0.5,0.2,0.9,0.7,0.7,1.3C63.3,37.7,62.9,38,62.5,38z
				"/>
		</g>
		<g>
			<path class="st0" d="M35.4,16.4c-0.6,0-1-0.5-1-1V3.1c0-0.6,0.5-1,1-1c0.6,0,1,0.5,1,1v12.3C36.4,16,36,16.4,35.4,16.4z"/>
		</g>
		<g>
			<path class="st0" d="M69.6,16.4c-0.6,0-1-0.5-1-1V9.2c0-0.6,0.5-1,1-1c0.6,0,1,0.5,1,1v6.2C70.6,16,70.2,16.4,69.6,16.4z"/>
		</g>
		<g>
			<path class="st0" d="M56.6,80.2v8.7c0,0.6-0.5,1-1,1c-0.6,0-1-0.5-1-1v-7.6h-4.1v7.6c0,0.6-0.5,1-1,1c-0.6,0-1-0.5-1-1v-8.7
				c0-0.6,0.5-1,1-1h6.1C56.1,79.2,56.6,79.6,56.6,80.2z"/>
		</g>
		<g>
			<path class="st0" d="M60.5,68.2v20.7c0,0.6-0.5,1-1,1c-0.6,0-1-0.5-1-1V69.2h-1.9v11c0,0.6-0.5,1-1,1c-0.6,0-1-0.5-1-1v-12
				c0-0.6,0.5-1,1-1h3.9C60.1,67.2,60.5,67.6,60.5,68.2z"/>
		</g>
		<g>
			<path class="st0" d="M50.5,73.4v6.8c0,0.6-0.5,1-1,1c-0.6,0-1-0.5-1-1v-5.8h-1.9v14.5c0,0.6-0.5,1-1,1c-0.6,0-1-0.5-1-1V73.4
				c0-0.6,0.5-1,1-1h3.9C50,72.3,50.5,72.8,50.5,73.4z"/>
		</g>
		<g>
			<path class="st0" d="M29.3,84.8c0,0.6-0.5,1-1,1h-2v3c0,0.6-0.5,1-1,1c-0.6,0-1-0.5-1-1v-4c0-0.6,0.5-1,1-1h3.1
				C28.8,83.8,29.3,84.3,29.3,84.8z"/>
		</g>
		<g>
			<path class="st0" d="M26.2,71.1v13.8c0,0.6-0.5,1-1,1c-0.6,0-1-0.5-1-1V72.1h-1.9v16.7c0,0.6-0.5,1-1,1c-0.2,0-0.4-0.1-0.6-0.2
				c-0.3-0.2-0.4-0.5-0.4-0.8V71.1c0-0.6,0.5-1,1-1h3.9C25.8,70.1,26.2,70.5,26.2,71.1z"/>
		</g>
		<g>
			<path class="st0" d="M80.8,84.8v4c0,0.6-0.5,1-1,1c-0.6,0-1-0.5-1-1v-3h-2c-0.6,0-1-0.5-1-1c0-0.6,0.5-1,1-1h3.1
				C80.4,83.8,80.8,84.3,80.8,84.8z"/>
		</g>
		<g>
			<path class="st0" d="M84.8,77.9v11c0,0.3-0.2,0.7-0.4,0.8c-0.2,0.1-0.4,0.2-0.6,0.2c-0.6,0-1-0.5-1-1v-10h-1.9v7.5
				c0,0.6-0.5,1-1,1c-0.6,0-1-0.5-1-1v-8.5c0-0.6,0.5-1,1-1h3.9C84.3,76.8,84.8,77.3,84.8,77.9z"/>
		</g>
	</g>
	<g>
		<path class="st0" d="M109.2,68.5c2.4,0,4.2,1,5.7,3c0.2,0.2,0.3,0.2,0.6,0l1.7-1.3c0.2-0.2,0.2-0.3,0.1-0.6
			c-1.8-2.6-4.9-4.1-8.1-4.1c-5.6,0-9.8,4.1-9.8,9.8c0,5.7,4.2,9.8,9.8,9.8c1.9,0,3.7-0.6,5.2-1.9l0.3,1.1c0.1,0.3,0.3,0.5,0.6,0.5
			h1.5c0.3,0,0.5-0.2,0.5-0.5v-9.5c0-0.3-0.1-0.5-0.5-0.5h-2.2c-0.3,0-0.5,0.1-0.5,0.5V80c-1.4,1.4-3,2.1-4.9,2.1
			c-3.9,0-6.6-2.9-6.6-6.8C102.6,71.4,105.4,68.5,109.2,68.5z"/>
		<path class="st0" d="M141.9,65.8h-3.1c-0.3,0-0.6,0.2-0.8,0.5l-3.4,7.6l-2.6,6.4h-0.2l-2.4-5.5l-3.9-8.6c-0.1-0.2-0.3-0.5-0.6-0.5
			h-3.2c-0.3,0-0.5,0.2-0.5,0.5v18c0,0.3,0.2,0.5,0.5,0.5h2.2c0.3,0,0.4-0.2,0.4-0.5V76l-0.2-5.5h0.2l3,7l3.1,6.8
			c0.2,0.3,0.4,0.5,0.7,0.5h1.4c0.3,0,0.5-0.2,0.7-0.5l3.1-6.8l2.9-7h0.2l-0.2,5.5v8.3c0,0.3,0.2,0.5,0.5,0.5h2.2
			c0.3,0,0.5-0.2,0.5-0.5v-18C142.4,66,142.2,65.8,141.9,65.8z"/>
		<path class="st0" d="M155.6,65.6c-5.5,0-9.8,4.1-9.8,9.8c0,5.6,4.3,9.8,9.8,9.8s9.8-4.1,9.8-9.8C165.4,69.7,161.1,65.6,155.6,65.6
			z M155.6,82.1c-3.9,0-6.6-2.9-6.6-6.8c0-3.9,2.7-6.8,6.6-6.8c3.9,0,6.6,2.9,6.6,6.8C162.2,79.2,159.5,82.1,155.6,82.1z"/>
		<path class="st0" d="M176.5,65.8h-7.1c-0.3,0-0.5,0.2-0.5,0.5v18c0,0.3,0.2,0.5,0.5,0.5h7.1c5.5,0,9.8-3.9,9.8-9.5
			C186.3,69.7,182,65.8,176.5,65.8z M176.5,81.8h-4.5v-13h4.5c3.8,0,6.5,2.7,6.5,6.5C183.1,79.1,180.3,81.8,176.5,81.8z"/>
		<path class="st0" d="M205.8,65.8h-1.3c-0.3,0-0.5,0.1-0.5,0.5v7.6h-11.8v-7.6c0-0.3-0.2-0.5-0.5-0.5h-1.4c-0.3,0-0.5,0.1-0.5,0.5
			v18.1c0,0.3,0.1,0.5,0.5,0.5h1.4c0.3,0,0.5-0.1,0.5-0.5V76h11.8v8.4c0,0.3,0.2,0.5,0.5,0.5h1.3c0.3,0,0.5-0.1,0.5-0.5V66.3
			C206.2,66,206.1,65.8,205.8,65.8z"/>
		<path class="st0" d="M226.8,82c1.6-1.7,2.5-4,2.5-6.7c0-5.7-4.2-9.8-9.8-9.8c-5.5,0-9.8,4.1-9.8,9.8c0,5.6,4.3,9.8,9.8,9.8
			c2.1,0,4-0.6,5.6-1.7l1.8,1.9c0.2,0.2,0.5,0.2,0.7,0l0.9-0.8c0.2-0.2,0.2-0.4,0-0.7L226.8,82z M222.8,77.9c-0.2-0.2-0.5-0.2-0.6,0
			l-0.9,0.9c-0.2,0.2-0.2,0.5,0,0.7l2.3,2.4c-1.2,0.7-2.5,1.1-4.1,1.1c-4.3,0-7.5-3.3-7.5-7.6c0-4.4,3.1-7.7,7.5-7.7
			c4.4,0,7.5,3.3,7.5,7.7c0,2-0.7,3.7-1.8,5.1L222.8,77.9z"/>
	</g>
</g>
</svg>
